<svg width="112" height="42" viewBox="0 0 112 42" fill="none" xmlns="http://www.w3.org/2000/svg">
<path d="M28.589 0.296387H38.8814V40.3674H28.589V34.9582H10.1766L20.5076 25.1557H28.589V14.5114L0 41.2964V27.1588L28.589 0.296387Z" fill="#EF3E33"/>
<path d="M28.589 0.296387H38.8814V40.3674H28.589V34.9582H10.1766L20.5076 25.1557H28.589V14.5114L0 41.2964V27.1588L28.589 0.296387Z" fill="url(#paint0_linear_829_4416)"/>
<path d="M50.1393 11.2504H41.691V0.75119H78.5931L67.4993 11.2504H61.2234V40.8222H50.1393V11.2504Z" fill="#EF3E33"/>
<path d="M50.1393 11.2504H41.691V0.75119H78.5931L67.4993 11.2504H61.2234V40.8222H50.1393V11.2504Z" fill="url(#paint1_linear_829_4416)"/>
<path d="M101.785 10.4278H81.171V31.1843H92.3324C92.8157 31.2004 93.2928 31.0724 93.7035 30.8166C94.0782 30.5824 94.3794 30.247 94.5724 29.8489C94.7831 29.3945 94.8887 28.8984 94.8814 28.3974C94.8985 27.6914 94.6582 27.0033 94.2055 26.4621C93.9683 26.2042 93.6778 26.0013 93.3543 25.8676C93.0308 25.7339 92.682 25.6726 92.3324 25.6879H83.3917V15.9822H94.3503C95.7944 15.9671 97.2244 16.2676 98.5407 16.8628C99.8495 17.438 101.021 18.2857 101.978 19.3497C102.986 20.4758 103.761 21.7915 104.257 23.2204C104.836 24.8434 105.121 26.5575 105.097 28.2813C105.092 29.8923 104.808 31.4903 104.257 33.0035C103.721 34.4582 102.941 35.8099 101.949 36.9999C101.011 38.1511 99.8519 39.102 98.5407 39.7965C97.2662 40.4692 95.8487 40.8243 94.4083 40.8319H70.9462V10.4278L81.171 0.75119H112L101.785 10.4278Z" fill="#EF3E33"/>
<path d="M101.785 10.4278H81.171V31.1843H92.3324C92.8157 31.2004 93.2928 31.0724 93.7035 30.8166C94.0782 30.5824 94.3794 30.247 94.5724 29.8489C94.7831 29.3945 94.8887 28.8984 94.8814 28.3974C94.8985 27.6914 94.6582 27.0033 94.2055 26.4621C93.9683 26.2042 93.6778 26.0013 93.3543 25.8676C93.0308 25.7339 92.682 25.6726 92.3324 25.6879H83.3917V15.9822H94.3503C95.7944 15.9671 97.2244 16.2676 98.5407 16.8628C99.8495 17.438 101.021 18.2857 101.978 19.3497C102.986 20.4758 103.761 21.7915 104.257 23.2204C104.836 24.8434 105.121 26.5575 105.097 28.2813C105.092 29.8923 104.808 31.4903 104.257 33.0035C103.721 34.4582 102.941 35.8099 101.949 36.9999C101.011 38.1511 99.8519 39.102 98.5407 39.7965C97.2662 40.4692 95.8487 40.8243 94.4083 40.8319H70.9462V10.4278L81.171 0.75119H112L101.785 10.4278Z" fill="url(#paint2_linear_829_4416)"/>
<defs>
<linearGradient id="paint0_linear_829_4416" x1="56" y1="0.296387" x2="56" y2="41.2964" gradientUnits="userSpaceOnUse">
<stop stop-color="#EF3E33"/>
<stop offset="1" stop-color="#A5251D"/>
</linearGradient>
<linearGradient id="paint1_linear_829_4416" x1="56" y1="0.296387" x2="56" y2="41.2964" gradientUnits="userSpaceOnUse">
<stop stop-color="#EF3E33"/>
<stop offset="1" stop-color="#A5251D"/>
</linearGradient>
<linearGradient id="paint2_linear_829_4416" x1="56" y1="0.296387" x2="56" y2="41.2964" gradientUnits="userSpaceOnUse">
<stop stop-color="#EF3E33"/>
<stop offset="1" stop-color="#A5251D"/>
</linearGradient>
</defs>
</svg>
